PathFileType	4	(X/Y/Z)	rand1.trc
DataRate	CameraRate	NumFrames	NumMarkers	Units	OrigDataRate	OrigDataStartFrame	OrigNumFrames
100.0	100.0	6	17	mm	100.0	687	1373
Frame#	Time	STER			XIPH			T10			T1			CLAV_SC			CLAV_AC			SCAP_AA			SCAP_CP			SCAP_TS			SCAP_IA			DELT			ARMl			EPICm			EPICl			LARM_elb			STYLr			STYLu		
		X1	Y1	Z1	X2	Y2	Z2	X3	Y3	Z3	X4	Y4	Z4	X5	Y5	Z5	X6	Y6	Z6	X7	Y7	Z7	X8	Y8	Z8	X9	Y9	Z9	X10	Y10	Z10	X11	Y11	Z11	X12	Y12	Z12	X13	Y13	Z13	X14	Y14	Z14	X15	Y15	Z15	X16	Y16	Z16	X17	Y17	Z17

687	6.86	396.02337646484375	69.03790283203125	1438.11474609375	398.4239501953125	120.39665222167969	1274.605712890625	395.8050231933594	-111.30195617675781	1241.4935302734375	395.8853759765625	-91.19341278076172	1471.4930419921875	431.78369140625	64.86104583740234	1443.23095703125	578.7857666015625	19.25372886657715	1466.8199462890625	596.5943603515625	-18.937437057495117	1448.7332763671875	544.0695190429688	-43.17660140991211	1473.009765625	540.7140502929688	-99.91487121582031	1422.27099609375	515.1895751953125	-120.25361633300781	1283.654541015625	686.8148193359375	56.35560607910156	1366.552978515625	718.6624145507812	68.33462524414062	1334.010498046875	742.9367065429688	149.31626892089844	1191.8447265625	796.7066040039062	145.45660400390625	1279.56298828125	794.904541015625	145.67233276367188	1190.6331787109375	734.3043212890625	413.9238586425781	1282.0028076171875	734.8043212890625	400.15386962890625	1200.90673828125
688	6.87	396.2726745605469	69.25980377197266	1438.0704345703125	398.54669189453125	120.5792007446289	1274.5394287109375	395.4256286621094	-111.08402252197266	1241.501220703125	395.7124328613281	-90.94220733642578	1471.5535888671875	432.3515319824219	65.01234436035156	1442.9366455078125	579.2260131835938	19.012245178222656	1466.1290283203125	596.7867431640625	-19.46258544921875	1448.0426025390625	544.1353149414062	-43.31697463989258	1472.797607421875	540.2328491210938	-100.20921325683594	1422.178466796875	514.5261840820312	-120.4930419921875	1283.4951171875	686.48681640625	54.37579345703125	1363.7724609375	718.2132568359375	65.61473846435547	1330.563720703125	742.0111694335938	144.125	1186.9661865234375	796.4346313476562	140.9639434814453	1274.0982666015625	792.913330078125	140.29432678222656	1185.3548583984375	738.68798828125	410.619140625	1274.455810546875	738.05810546875	396.0104675292969	1193.4859619140625
689	6.88	396.9165344238281	69.50679779052734	1438.1541748046875	398.72882080078125	120.83863830566406	1274.4564208984375	394.7043151855469	-110.86093139648438	1241.46728515625	395.4724426269531	-90.68860626220703	1471.606689453125	432.5355529785156	65.1539306640625	1442.7806396484375	579.7223510742188	18.77507972717285	1465.3922119140625	596.9149169921875	-19.991165161132812	1447.390380859375	544.1870727539062	-43.40153503417969	1472.5179443359375	539.8135375976562	-100.48285675048828	1422.060791015625	514.0589599609375	-120.73064422607422	1283.299560546875	687.3221435546875	52.55595397949219	1361.4580078125	716.9864501953125	62.85778045654297	1327.025146484375	739.211669921875	140.6094970703125	1182.8660888671875	796.0890502929688	136.515380859375	1268.88525390625	791.047607421875	135.0074005126953	1180.3636474609375	743.0507202148438	407.2922058105469	1266.8294677734375	741.2418212890625	391.74163818359375	1186.0230712890625
690	6.890000000000001	397.379150390625	70.27174377441406	1437.9036865234375	398.79608154296875	121.47120666503906	1274.4820556640625	394.4976806640625	-110.65779876708984	1241.4462890625	395.2106628417969	-90.37291717529297	1471.6304931640625	432.7344970703125	65.29757690429688	1442.6151123046875	580.15234375	18.498130798339844	1464.681640625	596.841796875	-20.897796630859375	1446.6861572265625	544.1646728515625	-43.514747619628906	1472.2198486328125	539.31787109375	-100.77930450439453	1421.9593505859375	513.5827026367188	-121.0775375366211	1283.134033203125	687.129638671875	50.646522521972656	1358.8905029296875	716.3596801757812	60.19029235839844	1323.8223876953125	738.1167602539062	135.59080505371094	1178.306640625	795.5831298828125	132.10182189941406	1263.8741455078125	789.159423828125	129.66456604003906	1175.5443115234375	747.3995361328125	403.8776550292969	1259.1270751953125	744.3754272460938	387.3504943847656	1178.5738525390625
691	6.9	nan	nan	nan	398.8818359375	121.62006378173828	1274.2716064453125	394.13037109375	-110.44021606445312	1241.438232421875	394.8736877441406	-90.09642791748047	1471.6474609375	432.8392333984375	65.42251586914062	1442.490478515625	580.6205444335938	18.217805862426758	1463.9498291015625	596.9846801757812	-21.444990158081055	1446.0687255859375	544.0947265625	-43.64230728149414	1471.8763427734375	538.822998046875	-101.01798248291016	1421.6654052734375	512.8137817382812	-121.37477111816406	1282.958984375	685.8621215820312	48.58466339111328	1356.147216796875	716.4674682617188	57.668094635009766	1320.932861328125	736.0894775390625	131.8431396484375	1173.9049072265625	794.9682006835938	127.71625518798828	1259.06689453125	787.3743896484375	124.23367309570312	1170.91552734375	751.6652221679688	400.40216064453125	1251.55126953125	747.3809814453125	382.8405456542969	1171.15869140625
692	6.91	nan	nan	nan	398.96697998046875	121.71873474121094	1274.1400146484375	393.92950439453125	-110.22956848144531	1241.3743896484375	394.5321044921875	-89.81217956542969	1471.644775390625	433.0885009765625	65.60204315185547	1442.275390625	581.1029663085938	17.868459701538086	1463.324951171875	597.067138671875	-21.920360565185547	1445.473876953125	544.0252685546875	-43.81768798828125	1471.57958984375	538.31396484375	-101.29907989501953	1421.385498046875	511.8605041503906	-121.57206726074219	1282.82861328125	685.305419921875	46.588462829589844	1353.646240234375	715.201416015625	54.97845458984375	1317.8203125	734.275146484375	127.38916015625	1169.6767578125	794.4297485351562	123.40692138671875	1254.4033203125	785.554443359375	119.11531066894531	1166.4853515625	755.9758911132812	396.86834716796875	1243.937255859375	750.3238525390625	378.2140197753906	1163.7908935546875
